<svg width="791" height="666" viewBox="0 0 791 666" fill="none" xmlns="http://www.w3.org/2000/svg">
<path fill-rule="evenodd" clip-rule="evenodd" d="M467.21 194.075C459.106 188.332 435.208 168.957 397.875 174.858C392.083 184.777 391.531 196.909 396.399 207.313C404.543 225.468 417.682 240.2 449.507 229.441C460.365 225.763 471.636 205.838 471.636 205.838C471.636 205.838 475.353 199.819 467.21 194.075ZM418.528 226.53C404.759 217.895 400.019 210.637 397.875 204.402C397.875 204.402 402.241 200.822 411.152 202.926C420.062 205.031 418.606 209.555 427.379 211.778C436.152 214 442.525 212.171 448.032 217.679C453.54 223.186 453.933 225.055 453.933 225.055C453.933 225.055 432.336 235.145 418.528 226.53ZM461.309 204.362C449.271 213.587 445.396 200.428 445.082 196.986C444.767 193.544 452.32 200.92 452.458 198.461C452.595 196.003 433.772 187.21 420.003 185.184C406.234 183.158 420.003 188.135 420.003 188.135C420.003 188.135 421.478 193.367 411.152 192.561C400.825 191.754 402.3 176.333 402.3 176.333C425.219 175.524 447.686 182.839 465.735 196.986C467.741 198.796 464.319 202.081 461.309 204.362Z" fill="white"/>
<path fill-rule="evenodd" clip-rule="evenodd" d="M418.527 161.62C418.527 161.62 426.612 153.752 430.329 155.719C434.047 157.686 436.073 161.404 434.755 164.571C433.437 167.737 429.031 161.187 427.379 160.145C425.726 159.102 418.96 164.453 418.527 161.62Z" fill="white"/>
<path fill-rule="evenodd" clip-rule="evenodd" d="M445.082 168.957C445.082 168.957 446.576 163.489 453.933 163.056C461.289 162.623 458.359 174.858 458.359 174.858C458.359 174.858 451.435 165.652 446.557 171.907C446.557 171.947 442.642 172.045 445.082 168.957Z" fill="white"/>
<path fill-rule="evenodd" clip-rule="evenodd" d="M448.032 126.215C448.032 126.215 444.098 132.922 443.606 136.541C443.115 140.161 437.489 134.397 431.805 138.017C426.12 141.636 436.112 124.11 448.032 126.215Z" fill="white"/>
<path fill-rule="evenodd" clip-rule="evenodd" d="M459.833 135.066L453.933 142.442C453.933 142.442 462.686 148.343 464.259 154.244C465.833 160.145 471.675 139.098 459.833 135.066Z" fill="white"/>
<path fill-rule="evenodd" clip-rule="evenodd" d="M473.11 154.244C473.11 154.244 494.039 183.276 483.437 210.302C472.835 237.329 455.388 253.576 415.577 244.233C375.766 234.89 373.268 180.267 384.597 166.046C395.927 151.825 405.486 141.046 424.428 136.541C424.428 136.541 384.341 139.925 374.271 179.323C364.2 218.721 393.35 244.547 422.953 251.609C452.556 258.67 489.417 234.083 492.288 195.55C493.891 179.317 486.545 163.496 473.11 154.244Z" fill="white"/>
<path fill-rule="evenodd" clip-rule="evenodd" d="M515.892 194.075C515.892 194.075 520.455 214.394 505.565 239.807C505.565 239.807 510.699 242.993 518.842 211.778C518.842 211.778 519.669 192.423 515.892 194.075Z" fill="white"/>
<path fill-rule="evenodd" clip-rule="evenodd" d="M483.437 278.163C483.437 278.163 469.491 290.692 442.131 289.964C440.498 294.154 461.112 294.449 467.21 292.915C473.307 291.381 483.437 278.163 483.437 278.163Z" fill="white"/>
<path fill-rule="evenodd" clip-rule="evenodd" d="M422.953 267.836C422.953 267.836 429.975 266.853 431.804 266.361C433.634 265.869 437.705 271.809 431.804 272.262C428.273 272.487 424.892 270.796 422.953 267.836Z" fill="white"/>
<path fill-rule="evenodd" clip-rule="evenodd" d="M366.895 233.867C366.895 233.867 370.828 255.621 393.448 261.896C371.242 239.256 366.895 233.867 366.895 233.867Z" fill="white"/>
<path fill-rule="evenodd" clip-rule="evenodd" d="M337.39 233.867C337.39 233.867 336.269 253.949 352.142 260.421C347.917 251.202 342.985 242.325 337.39 233.867Z" fill="white"/>
<path fill-rule="evenodd" clip-rule="evenodd" d="M335.915 192.561C335.915 192.561 336.879 173.029 340.341 164.531C343.803 156.034 355.093 142.403 355.093 142.403C355.093 142.403 339.731 168.78 338.866 188.135C338.433 195.511 335.915 192.561 335.915 192.561Z" fill="white"/>
<path fill-rule="evenodd" clip-rule="evenodd" d="M362.469 163.056C362.469 163.056 364.436 137.486 390.498 129.126C381.745 139.335 373.071 141.656 362.469 163.056Z" fill="white"/>
<path fill-rule="evenodd" clip-rule="evenodd" d="M546.872 170.471C546.872 170.471 555.015 180.011 546.872 202.926C545.239 194.37 548.622 178.202 546.872 170.471Z" fill="white"/>
<path fill-rule="evenodd" clip-rule="evenodd" d="M375.746 83.4335C375.746 83.4335 382.729 71.6317 409.676 70.1565C399.979 74.8968 379.778 79.8929 375.746 83.4335Z" fill="white"/>
<path fill-rule="evenodd" clip-rule="evenodd" d="M296.084 112.938C296.084 112.938 297.835 99.1692 318.212 87.8591C315.223 92.7962 301.1 106.506 299.034 114.413C296.772 119.783 296.084 112.938 296.084 112.938Z" fill="white"/>
<path fill-rule="evenodd" clip-rule="evenodd" d="M262.154 183.749C262.154 183.749 251.67 213.646 265.104 226.53C264.947 219.469 257.846 210.932 263.629 188.174C264.75 181.624 262.154 183.749 262.154 183.749Z" fill="white"/>
<path fill-rule="evenodd" clip-rule="evenodd" d="M253.303 109.948C253.303 109.948 245.73 114.649 245.927 132.076C246.123 149.504 246.556 123.461 250.352 118.799C254.149 114.138 258.436 106.014 253.303 109.948Z" fill="white"/>
<path fill-rule="evenodd" clip-rule="evenodd" d="M422.953 0.821062C422.953 0.821062 415.085 -0.418124 397.874 12.6228C380.664 25.6638 408.122 9.31834 422.953 9.67239C437.784 10.0264 447.049 2.53232 424.428 0.821062" fill="white"/>
<path fill-rule="evenodd" clip-rule="evenodd" d="M496.714 56.8401C496.714 56.8401 509.972 55.5026 518.843 58.3154C527.714 61.1281 527.694 67.1667 527.694 67.1667C527.694 67.1667 527.399 60.125 496.714 56.8401Z" fill="white"/>
<path fill-rule="evenodd" clip-rule="evenodd" d="M619.158 114.413C619.158 114.413 629.425 114.57 626.534 129.165C623.642 143.76 623.131 127.434 620.633 118.839C618.135 110.243 619.158 114.413 619.158 114.413Z" fill="white"/>
<path fill-rule="evenodd" clip-rule="evenodd" d="M602.93 241.282C602.93 241.282 609.696 246.731 595.554 264.886C581.411 283.041 602.714 256.782 602.93 241.282Z" fill="white"/>
<path fill-rule="evenodd" clip-rule="evenodd" d="M486.388 351.884C491.375 354.482 497.032 355.511 502.615 354.835C505.979 354.402 514.417 344.508 514.417 344.508C514.417 344.508 505.192 352.337 486.388 351.884Z" fill="white"/>
<path fill-rule="evenodd" clip-rule="evenodd" d="M362.469 372.577C362.469 372.577 349.448 370.61 346.242 357.825C350.848 361.266 355.79 364.231 360.994 366.676C367.839 369.587 362.469 372.577 362.469 372.577Z" fill="white"/>
<path fill-rule="evenodd" clip-rule="evenodd" d="M245.926 312.093C245.926 312.093 237.469 313.922 240.026 292.915C242.583 271.908 241.56 296.986 245.926 303.241C250.293 309.496 249.546 312.545 245.926 312.093Z" fill="white"/>
<path fill-rule="evenodd" clip-rule="evenodd" d="M578.736 655.721C578.736 655.721 583.378 644.509 593.961 646.575C604.543 648.64 607.729 655.721 607.729 655.721H578.736Z" fill="white"/>
<path fill-rule="evenodd" clip-rule="evenodd" d="M461.584 652.672C461.584 652.672 470.298 644.411 479.858 643.526C489.417 642.641 489.279 648.424 489.004 651.138C488.729 653.852 475.235 652.672 475.235 652.672H461.584Z" fill="white"/>
<path fill-rule="evenodd" clip-rule="evenodd" d="M536.526 527.967C535.341 528.034 534.237 528.59 533.477 529.501C532.562 530.854 532.037 532.433 531.962 534.064C531.962 535.382 535.66 533.769 534.991 538.628C534.323 543.486 530.408 541.559 530.428 540.162C530.448 538.765 528.461 556.724 534.991 556.901C541.522 557.078 540.833 525.744 536.526 527.967Z" fill="white"/>
<path fill-rule="evenodd" clip-rule="evenodd" d="M519.256 527.967C518.071 528.034 516.967 528.59 516.207 529.501C515.292 530.854 514.767 532.433 514.692 534.064C514.692 535.382 518.41 533.769 517.721 538.628C517.033 543.486 513.138 541.559 513.158 540.162C513.178 538.765 511.191 556.724 517.721 556.901C524.252 557.078 523.563 525.744 519.256 527.967Z" fill="white"/>
<path fill-rule="evenodd" clip-rule="evenodd" d="M533.477 497.439C533.477 497.439 536.093 486.956 541.089 488.313C546.085 489.67 548.367 498.679 548.701 505.052C549.035 511.425 543.626 496.692 533.477 498.974C533.338 498.472 533.338 497.941 533.477 497.439Z" fill="white"/>
<path fill-rule="evenodd" clip-rule="evenodd" d="M507.591 509.694C507.591 509.694 509.381 498.58 518.252 492.955C527.123 487.329 527.3 496.889 518.252 502.082C509.204 507.274 507.591 509.694 507.591 509.694Z" fill="white"/>
<path fill-rule="evenodd" clip-rule="evenodd" d="M552.478 546.791C552.478 546.791 560.542 541.303 560.09 546.791C559.637 552.279 557.906 555.485 557.041 551.354C556.175 547.223 556.156 547.42 554.012 548.325C551.868 549.23 552.478 546.791 552.478 546.791Z" fill="white"/>
<path fill-rule="evenodd" clip-rule="evenodd" d="M496.144 549.839C496.144 549.839 502.045 542.64 503.756 545.276C505.467 547.912 507.06 551.708 503.756 552.888C500.452 554.068 498.996 552.888 500.707 551.354C502.418 549.82 500.707 549.387 496.144 551.354C495.023 551.846 496.144 549.839 496.144 549.839Z" fill="white"/>
<path fill-rule="evenodd" clip-rule="evenodd" d="M573.799 548.325C573.465 546.948 571.301 545.552 570.751 551.354C570.751 551.354 565.597 565.536 525.078 563.549C507.513 563.313 494.472 559.832 491.639 557.452C488.807 555.072 494.492 551.925 490.125 552.888C485.758 553.852 483.063 563.254 485.561 563.549C488.059 563.844 489.141 559.733 490.125 558.986C491.108 558.238 498.838 566.657 509.912 569.627C509.912 571.732 513.335 572.715 502.3 581.822C492.466 591.283 507.316 578.479 511.447 577.259C515.577 576.039 519.177 576 522.108 578.774C525.039 581.547 529.681 576.551 535.876 580.288C536.84 582.963 537.037 586.622 538.906 580.288C539.594 578.892 544.806 577.259 549.567 583.337C554.327 589.415 551.297 577.672 548.052 574.21C547.324 573.443 548.74 569.391 555.664 565.064C562.588 560.736 570.888 555.937 570.888 555.937C570.888 555.937 569.669 561.149 572.423 560.5C575.176 559.851 574.134 549.662 573.799 548.325ZM547.914 566.598C547.58 568.054 542.485 575.902 538.768 577.259C535.05 578.616 537.843 574.938 534.204 575.725C530.566 576.512 526.592 577.259 526.592 577.259C524.232 571.358 517.21 572.243 514.417 572.676C511.624 573.109 512.115 570.217 511.368 569.627C510.621 569.037 511.368 565.064 511.368 565.064H547.914C547.914 565.064 548.249 565.143 547.914 566.598Z" fill="white"/>
<path fill-rule="evenodd" clip-rule="evenodd" d="M607.513 562.821C607.513 562.821 613.591 570.355 613.591 578.046C613.591 580.013 625.668 589.454 618.174 596.319C614.417 599.761 604.405 599.367 604.405 599.367C604.405 599.367 620.023 593.467 616.581 587.192C613.139 580.917 607.493 582.766 607.454 575.016C607.415 567.267 606.038 560.776 607.513 562.821Z" fill="white"/>
<path fill-rule="evenodd" clip-rule="evenodd" d="M592.289 527.809C592.289 527.809 620.279 531.645 607.513 547.597C609.008 550.252 620.535 558.14 609.028 561.366C608.438 558.986 611.742 548.797 601.416 549.171C596.872 548.777 617.466 537.959 592.289 527.809Z" fill="white"/>
<path fill-rule="evenodd" clip-rule="evenodd" d="M587.706 527.81C587.706 527.81 589.221 512.33 581.628 512.566C577.419 512.979 577.045 520.197 577.045 520.197C577.045 520.197 573.111 505.229 561.821 501.924C550.531 498.62 573.19 506.783 575.59 524.761C576.73 530.544 581.884 506.075 587.706 527.81Z" fill="white"/>
<path fill-rule="evenodd" clip-rule="evenodd" d="M605.979 610.028C605.979 610.028 615.715 611.13 616.64 605.465C617.564 599.8 619.984 622.794 605.979 610.028Z" fill="white"/>
<path fill-rule="evenodd" clip-rule="evenodd" d="M598.367 619.175C598.367 619.175 610.404 617.07 607.513 620.689C604.622 624.309 602.222 619.175 602.93 623.738C603.638 628.302 599.586 622.007 598.367 619.175Z" fill="white"/>
<path fill-rule="evenodd" clip-rule="evenodd" d="M593.804 635.914C593.804 635.914 590.243 648.601 580.035 648.109C569.826 647.617 567.859 634.34 567.859 634.34C567.859 634.34 578.776 651.138 593.804 635.914Z" fill="white"/>
<path fill-rule="evenodd" clip-rule="evenodd" d="M542.033 646.575C542.033 646.575 552.655 651.708 558.772 643.526C558.89 643.054 561.152 650.253 570.967 640.477C572.836 639.022 565.991 659.242 557.199 649.623C555.448 646.929 548.131 658.475 542.033 646.575Z" fill="white"/>
<path fill-rule="evenodd" clip-rule="evenodd" d="M537.47 645.06C537.47 645.06 530.507 652.594 520.711 643.526C519.275 642.208 523.485 654.442 502.438 642.011C497.245 638.943 512.45 660.697 522.226 648.109C523.583 646.457 531.726 658.908 537.47 645.06Z" fill="white"/>
<path fill-rule="evenodd" clip-rule="evenodd" d="M494.826 626.787C494.826 626.787 483.693 635.599 481.057 625.253C481.057 614.553 480.762 622.007 474.959 616.126C471.576 612.664 474.959 600.902 474.959 600.902C474.959 600.902 468.586 606.94 465.833 605.465C461.899 603.341 457.335 590.693 462.784 606.98C464.593 612.369 471.93 608.514 471.93 608.514C471.93 608.514 470.494 617.66 478.008 620.689C479.188 621.102 474.802 632.019 488.669 632.865C493.587 633.16 494.826 626.787 494.826 626.787Z" fill="white"/>
<path fill-rule="evenodd" clip-rule="evenodd" d="M465.892 567.385C465.892 567.385 458.358 562.054 459.794 553.616C461.23 545.178 470.455 546.004 470.455 546.004C470.455 546.004 465.794 536.425 473.504 535.343C473.504 535.343 466.934 522.361 478.067 518.584C478.067 518.584 480.034 517.247 488.728 518.584C490.066 516.617 488.945 509.045 494.826 507.923C494.195 511.087 493.171 514.16 491.777 517.07C489.122 523.167 493.567 521.004 485.68 521.633C477.792 522.263 473.878 527.023 475.019 533.809C475.333 535.933 475.51 536.346 473.504 536.857C471.498 537.369 469.885 543.368 473.504 547.518C473.897 548.522 462.705 546.319 462.843 556.665C462.981 567.011 465.892 567.385 465.892 567.385Z" fill="white"/>
<path fill-rule="evenodd" clip-rule="evenodd" d="M581.569 619.175C581.569 619.175 577.32 627.613 575.471 628.302C573.623 628.99 580.92 629.836 583.084 623.738C585.247 617.641 581.569 619.175 581.569 619.175Z" fill="white"/>
<path fill-rule="evenodd" clip-rule="evenodd" d="M517.662 613.077C517.662 613.077 517.466 616.224 522.226 617.641C526.986 619.057 517.938 614.002 517.662 613.077Z" fill="white"/>
<path fill-rule="evenodd" clip-rule="evenodd" d="M117.15 456.665C117.15 456.665 103.204 476.334 89.1205 469.941C75.0371 463.549 72.5784 458.671 77.3188 449.288C78.7153 446.181 79.2857 440.221 74.3683 443.388C69.4509 446.554 56.2133 446.004 61.0913 431.586C59.3014 432.687 54.561 435.225 56.6657 444.863C52.2793 445.984 44.0771 443.23 49.2896 433.061C52.1023 431.763 57.3148 429.009 61.0913 428.635C64.8679 428.262 66.8742 423.305 71.4179 424.21C75.9616 425.114 78.4793 428.281 81.7444 427.16C85.0096 426.039 90.4384 419.43 95.0214 421.259C99.6044 423.088 104.601 423.659 106.823 427.16C109.046 430.661 110.128 426.413 114.199 431.586C118.271 436.759 126.316 440.909 127.476 453.714C128.991 455.681 129.817 457.55 130.427 453.714C131.036 449.878 130.427 436.405 120.1 430.111C109.774 423.816 109.774 425.685 109.774 425.685C109.774 425.685 102.319 415.732 90.5958 418.309C78.8727 420.885 82.1378 424.072 74.3683 419.784C70.1957 419.094 65.9238 420.162 62.5665 422.734C61.0323 423.836 51.0992 425.075 49.2896 431.586C47.3226 433.061 37.9795 442.384 47.8143 449.288C57.6491 456.192 59.6161 447.813 59.6161 447.813C59.6161 447.813 59.9111 450.724 64.0418 452.239C68.1724 453.753 71.6146 452.022 74.3683 450.764C77.1221 449.505 65.1629 463.864 75.8435 469.941C75.8435 469.941 83.2786 474.879 89.1205 475.842C89.986 477.042 93.8412 497.99 108.298 511.248C122.756 524.505 145.061 541.146 162.882 543.703C162.882 543.25 165.478 544.194 165.832 543.703C166.186 543.211 164.357 541.146 164.357 540.752C164.508 539.135 163.973 537.529 162.882 536.326C162.882 536.326 126.473 538.51 93.5462 477.318C93.5462 477.318 116.619 471.869 117.15 456.665Z" fill="white"/>
<path fill-rule="evenodd" clip-rule="evenodd" d="M81.7443 428.596C81.7443 428.596 72.7159 448.266 92.0708 453.675C104.522 457.117 115.006 439.768 109.773 431.546C108.18 436.975 103.499 447.99 92.0708 446.299C80.6428 444.607 81.7443 428.596 81.7443 428.596Z" fill="white"/>
<path fill-rule="evenodd" clip-rule="evenodd" d="M162.882 506.822C162.882 506.822 152.103 584.851 229.267 626.315C225.156 630.131 218.724 645.099 217.465 654.344C215.498 654.344 209.597 649.663 199.762 649.918C189.927 650.174 186.997 657.334 183.535 657.295C180.073 657.255 180.86 660.756 198.287 660.245C215.714 659.734 217.465 658.77 217.465 658.77C217.465 658.77 218.448 658.14 218.94 654.344C219.668 653.026 231.214 631.173 238.118 630.741C238.118 630.741 247.186 636.799 277.949 641.067C278.421 646.693 280.309 659.694 311.879 664.671C323.858 666.638 344.806 662.9 350.235 658.77C355.664 654.639 357.67 642.169 347.284 639.592C347.579 635.874 347.756 628.597 334.007 629.265C335.706 631.483 337.691 633.467 339.908 635.166C343.35 637.743 342.721 639.946 336.958 639.592C331.195 639.238 350.058 640.851 348.76 649.918C347.461 658.986 340.282 662.861 310.404 660.245C295.416 655.741 280.742 652.259 282.375 638.117C284.007 623.974 287.115 593.014 286.8 577.633C286.486 562.251 284.715 543.506 282.375 539.277C280.034 535.048 284.224 563.923 282.375 579.108C280.526 594.293 280.25 633.239 276.474 633.691C272.697 634.143 259.755 631.547 245.494 624.84C231.234 618.132 217.957 615.005 202.713 596.81C187.469 578.616 174.723 566.126 170.258 537.802C165.793 509.477 167.307 506.822 167.307 506.822H162.882Z" fill="white"/>
<path fill-rule="evenodd" clip-rule="evenodd" d="M215.989 531.901C189.416 523.423 179.109 542.227 179.109 542.227C208.043 525.547 223.621 542.227 224.841 545.178C226.06 548.128 221.084 546.102 218.94 545.178C216.796 544.253 218.684 538.903 215.989 543.703C213.295 548.502 208.122 549.603 202.712 549.603C197.303 549.603 191.363 537.802 190.911 539.277C188.334 545.925 191.756 547.558 198.287 554.029C204.817 560.5 210.089 556.98 210.089 556.98V561.405C210.089 561.405 206.43 557.707 202.712 564.356C198.995 571.004 210.954 572.223 223.366 570.257C235.777 568.289 242.563 540.359 215.989 531.901ZM229.266 559.93C227.831 561.621 215.753 567.031 217.465 561.405C219.176 555.78 227.791 552.554 227.791 552.554C231.646 551.885 230.702 558.238 229.266 559.93Z" fill="white"/>
<path fill-rule="evenodd" clip-rule="evenodd" d="M201.237 434.497C201.237 434.497 190.025 415.476 165.832 424.17C165.832 424.17 153.833 417.994 134.852 425.645C139.534 426.708 149.034 429.933 149.604 430.071C150.175 430.209 127.968 444.784 130.426 466.952C132.885 489.119 148.68 520.728 192.386 496.456C192.012 492.522 177.24 504.658 158.456 500.882C148.837 496.849 136.19 485.638 134.852 475.803C134.852 475.803 126.001 448.993 156.98 434.497C159.675 436.641 169.923 445.177 170.257 447.774C170.592 450.37 177.476 438.903 171.733 431.546C171.733 431.546 183.003 425.095 196.811 438.922L201.237 434.497Z" fill="white"/>
<path fill-rule="evenodd" clip-rule="evenodd" d="M140.753 449.288C131.764 449.288 134.852 475.842 134.852 475.842H186.485C186.635 471.385 187.128 466.947 187.96 462.565L186.485 469.902H167.307C168.526 466.165 164.356 459.576 164.356 459.576C164.356 459.576 163.766 458.258 164.356 458.1C164.947 457.943 187.96 462.526 187.96 462.526V458.1L140.753 449.288ZM159.931 471.417H134.852C134.852 471.417 133.357 454.442 137.802 453.714L161.406 456.664C161.406 456.664 157.826 465.791 159.931 471.417Z" fill="white"/>
<path fill-rule="evenodd" clip-rule="evenodd" d="M249.919 514.198C249.919 514.198 296.89 495.295 273.523 444.863C250.155 394.43 173.326 433.71 187.96 484.694C187.96 484.694 196.005 515.634 235.167 511.248C217.11 507.314 177.909 503.163 196.811 450.763C207.04 422.42 279.758 418.899 273.523 474.367C273.523 474.367 274.723 498.069 249.919 514.198Z" fill="white"/>
<path fill-rule="evenodd" clip-rule="evenodd" d="M192.386 469.902H204.188C204.188 469.902 203.302 454.855 211.564 455.15C214.711 455.425 205.663 460.815 213.039 465.476C215.498 467.03 213.039 468.427 213.039 468.427H266.147L269.097 472.853L192.386 474.328V471.377" fill="white"/>
<path fill-rule="evenodd" clip-rule="evenodd" d="M224.841 399.092C241.56 406.33 259.322 417.935 261.721 425.645C261.603 414.021 252.575 389.748 230.742 385.815" fill="white"/>
<path fill-rule="evenodd" clip-rule="evenodd" d="M395.966 649.918C380.014 644.588 376.139 649.564 375.313 649.918C374.487 650.272 375.49 634.91 359.086 624.84C347.284 616.854 344.334 615.988 344.334 615.988C353.431 608.799 360.12 599.008 363.512 587.92C369.294 569.253 368.055 551.826 364.987 542.188C361.918 532.55 355.486 525.567 342.858 521.535C330.231 517.503 316.619 515.811 301.552 497.931C292.837 487.842 285.858 476.376 280.899 464.001C280.899 464.001 280.899 477.927 279.424 483.179C277.949 488.431 290.124 501.472 300.077 509.733C310.03 517.994 316.265 523.325 320.73 524.485C325.195 525.646 325.116 562.153 325.156 573.168C325.195 584.183 336.623 585.225 342.858 570.217C349.094 555.209 348.759 537.762 348.759 537.762C348.759 537.762 359.951 549.289 359.086 556.94C358.22 564.592 347.56 571.496 348.759 580.544C349.959 589.592 359.086 580.544 359.086 580.544C359.086 580.544 354.66 606.114 332.532 617.424C335.03 622.007 360.541 623.679 367.937 645.453C368.921 655.288 367.544 656.39 370.888 657.255C374.231 658.121 397.442 657.255 397.442 657.255C397.442 657.255 411.918 655.249 395.966 649.918ZM339.908 568.781C334.007 580.209 329.129 576.079 328.106 565.831C328.441 554.718 325.156 526 325.156 526C346.34 530.189 344.334 536.326 344.334 536.326C344.334 536.326 345.888 557.334 339.908 568.781ZM353.185 577.633C351.218 574.131 359.086 562.88 359.086 562.88C360.443 554.619 360.797 571.515 360.561 573.207C360.325 574.898 355.25 581.134 353.185 577.633Z" fill="white"/>
<path fill-rule="evenodd" clip-rule="evenodd" d="M767.722 644.018H786.9C786.9 644.018 794.316 638.825 788.376 636.641C782.435 634.458 770.673 638.117 770.673 638.117C770.673 638.117 772.168 620.414 757.396 633.691C759.721 630.402 759.074 625.871 755.921 623.364C755.921 623.364 751.987 623.364 755.921 620.414C759.855 617.464 757.337 615.28 758.871 617.464C760.405 619.647 758.989 623.719 761.822 620.414C764.654 617.109 768.903 614.907 766.247 613.038C763.592 611.169 768.667 610.697 770.673 610.087C772.679 609.478 779.741 601.807 773.623 596.81C767.506 591.814 772.03 590.044 772.148 586.484C772.266 582.924 768.627 576.649 761.822 585.009C755.016 593.368 765.893 578.183 760.346 576.157C754.799 574.131 760.523 571.456 757.396 570.257C754.268 569.057 759.953 553.105 750.02 564.356C740.087 575.607 752.715 559.045 742.644 562.88C732.573 566.716 755.095 549.407 736.743 552.554C736.743 552.554 744.08 543.171 738.218 539.277C732.356 535.382 723.702 538.883 720.515 545.178C717.329 551.472 723.426 532.707 716.09 536.326C708.753 539.946 715.303 543.781 711.664 542.227C708.025 540.673 708.242 535.028 698.387 537.802C688.533 540.575 701.751 532.904 701.337 527.475C700.924 522.046 704.229 519.863 708.714 518.624C713.198 517.385 710.189 509.772 710.189 509.772C710.189 509.772 718.057 508.435 717.565 505.347C717.073 502.259 710.956 499.308 713.139 496.495C715.323 493.683 724.371 477.632 716.09 471.417C716.09 471.417 712.057 468.604 708.714 474.367C705.37 480.13 714.005 464.218 702.813 468.466C702.813 468.466 704.013 455.897 696.912 452.239C689.811 448.58 707.927 445.118 696.912 437.487C685.897 429.855 704.426 430.76 686.585 421.259C686.585 421.259 690.204 407.785 679.209 410.933C679.209 410.933 680.035 385.618 667.407 405.032C667.407 405.032 665.991 397.852 662.982 397.656C659.972 397.459 661.92 406.389 658.556 400.606C655.193 394.823 651.79 390.929 642.329 390.279C641.443 388.313 634.953 375.921 630.527 388.804C627.458 386.66 628.363 384.733 623.151 385.854C617.938 386.975 625.472 381.92 626.101 377.002C626.731 372.085 625.452 350.291 603.973 377.002C603.973 377.002 605.389 364.473 599.547 366.676C595.2 368.275 592.274 372.372 592.171 377.002C591.896 380.209 586.172 365.515 581.845 379.953C577.517 394.39 573.269 381.507 570.043 379.953C566.817 378.399 560.051 373.934 556.766 385.854C553.481 397.774 555.507 381.586 544.964 382.903C542.346 384.762 540.302 387.317 539.063 390.279C537.49 394.705 536.899 381.743 530.212 388.804C523.524 395.866 535.169 369.135 522.836 372.577C510.503 376.019 511.663 393.014 511.034 394.705C510.404 396.397 504.051 378.025 499.232 390.279C494.413 402.534 498.583 399.721 494.806 402.081C491.03 404.442 492.367 409.477 490.381 410.933C488.394 412.388 480.212 404.166 477.104 412.408C473.996 420.649 477.104 425.744 475.629 425.685C474.153 425.626 470.77 428.124 468.252 433.061C465.735 437.998 463.827 432.53 462.352 436.011C460.876 439.493 460.188 438.234 456.451 437.487C452.713 436.739 450.688 439.001 452.025 446.338C453.363 453.675 451.868 457.097 450.55 458.14C449.232 459.182 439.968 462.29 444.649 469.941C449.33 477.593 447.049 474.033 444.649 478.793C442.249 483.553 442.682 480.76 447.599 478.793C452.517 476.826 459.008 476.708 454.975 474.367C450.943 472.026 446.695 467.581 449.075 465.516C451.455 463.45 455.92 462.565 454.975 458.14C454.031 453.714 451.946 450.744 453.5 446.338C455.054 441.932 455.467 436.896 457.926 443.387C460.385 449.878 465.164 447.793 462.352 441.912C459.539 436.031 464.319 434.044 465.302 437.487C466.286 440.929 468.921 442.384 471.203 436.011C473.485 429.638 472.285 430.897 474.153 428.635C476.022 426.373 478.599 425.783 478.579 421.259C478.559 416.735 478.874 414.414 481.529 415.358C484.185 416.302 483.811 419.882 487.43 418.309C491.05 416.735 490.322 413.077 491.856 410.933C493.39 408.789 494.924 403.812 497.757 405.032C500.589 406.251 501.14 407.176 502.183 406.507C503.225 405.838 504.72 405.937 503.658 403.556C502.596 401.176 503.048 397.951 502.183 397.656C501.317 397.361 498.917 392.266 502.183 393.23C505.448 394.194 509.008 397.734 511.034 397.656C513.06 397.577 512.155 395.315 513.984 391.755C515.814 388.194 520.515 375.134 522.836 379.953C525.109 385.123 525.109 391.01 522.836 396.18C520.613 401.393 527.773 390.181 531.687 393.23C535.601 396.279 535.621 397.813 540.538 391.755C545.456 385.696 548.977 391.204 550.865 388.804C552.753 386.405 555.173 385.028 558.241 387.329C561.309 389.63 559.225 381.428 564.142 382.903C569.059 384.379 570.81 385.244 575.944 384.379C581.077 383.513 584.756 385.972 584.795 382.903C584.834 379.835 585.326 375.409 589.221 379.953C593.115 384.497 594.63 383.1 595.122 377.002C595.613 370.905 600.59 368.446 599.547 377.002C598.505 385.559 605.743 378.183 606.923 377.002C608.104 375.822 620.141 363.234 621.676 374.052C623.21 384.87 610.72 382.608 615.775 385.854C617.348 386.857 620.24 383.415 620.2 390.279C620.2 392.837 624.901 387.054 627.576 388.804C630.251 390.555 627.144 393.289 632.002 390.279C636.86 387.27 636.939 389.139 639.378 393.23C641.817 397.321 643.41 396.475 648.23 397.656C652.056 398.857 655.579 400.869 658.556 403.556C660.936 405.268 662.647 398.875 664.457 403.556C666.267 408.238 667.486 408.139 670.358 405.032C673.23 401.924 676.082 404.56 674.783 413.883C673.485 423.206 684.068 405.622 680.684 422.734C680.684 422.734 691.109 425.823 691.011 433.061C690.913 440.299 696.479 430.248 695.437 441.912C694.394 453.576 691.031 453.891 695.437 458.14C699.843 462.388 701.337 465.909 699.862 472.892C698.387 479.875 698.682 482.982 701.337 475.842C703.993 468.702 706.629 476 705.763 481.743C704.898 487.487 713.021 470.492 714.614 477.318C716.208 484.143 717.368 487.388 713.139 492.07C708.91 496.751 708.183 500.272 708.714 502.396C709.245 504.521 703.088 500.429 702.813 506.822C702.537 513.215 712.392 508.376 707.238 512.723C702.085 517.07 703.619 514.1 702.813 512.723C702.006 511.346 700.846 508.356 699.862 518.624C698.879 528.891 696.951 524.525 696.912 528.95C696.956 531.705 695.893 534.362 693.961 536.326C692.826 537.528 691.165 538.082 689.536 537.802C687.824 537.546 685.602 530.74 682.16 533.376C678.717 536.012 680.724 538.49 679.209 536.326C677.695 534.163 679.012 525.606 671.833 528.95C664.654 532.294 660.661 538.313 661.507 540.752C662.352 543.191 670.948 528.321 673.308 534.851C675.669 541.381 673.584 549.721 676.259 545.178C676.967 543.938 676.003 537.113 680.684 539.277C685.366 541.441 683.812 537.31 685.11 539.277C686.408 541.244 685.208 542.837 691.011 543.703C696.813 544.568 700.472 541.598 705.763 542.227C711.054 542.857 713.749 543.171 714.614 543.703C715.48 544.234 717.722 538.313 717.565 540.752C717.408 543.191 720.673 542.719 720.515 546.653C720.358 550.587 723.269 542.188 729.367 543.703C735.464 545.217 736.035 547.518 726.416 551.079C716.798 554.639 732.77 551.787 735.268 554.029C737.766 556.271 740.637 554.757 738.218 559.93C735.799 565.103 738.474 563.175 742.644 565.831C746.814 568.486 744.473 572.577 750.02 567.306C755.567 562.035 753.954 571.456 754.445 574.682C754.937 577.908 757.789 574.682 757.396 580.583C757.002 586.484 760.012 576.865 761.822 587.959C761.822 587.959 768.529 586.228 767.722 589.434C766.916 592.641 761.822 590.3 761.822 596.81C761.822 596.81 771.656 596.81 772.148 601.236C772.64 605.662 765.874 608.829 763.297 604.187C760.72 599.545 760.956 604.541 760.346 608.612C759.737 612.684 766.582 610.028 763.297 614.513C760.012 618.998 760.799 607.275 760.346 607.137C759.894 606.999 759.107 608.298 755.921 611.563C752.734 614.828 753.698 616.421 754.445 617.464C755.193 618.506 747.856 618.742 751.495 624.84C755.134 630.937 752.951 635.343 750.02 638.117C747.089 640.89 751.22 643.113 757.396 638.117C763.572 633.121 768.47 632.59 767.722 639.592C767.309 643.506 767.722 644.018 767.722 644.018Z" fill="white"/>
<path fill-rule="evenodd" clip-rule="evenodd" d="M450.55 490.595C450.55 490.595 452.674 484.3 446.124 483.218C439.574 482.137 437.941 486.582 440.223 492.07C442.505 497.558 428.933 485.48 428.421 495.02C428.028 502.2 437.273 505.347 437.273 505.347C437.273 505.347 426.1 512.998 435.798 517.149C439.731 518.84 444.649 514.198 444.649 514.198C444.649 514.198 431.706 515.555 438.748 506.822C438.748 506.822 432.513 499.131 434.322 496.495C436.132 493.86 440.853 498.659 446.124 499.446C451.395 500.233 437.371 493.171 443.174 489.119C448.976 485.067 450.55 490.595 450.55 490.595Z" fill="white"/>
<path fill-rule="evenodd" clip-rule="evenodd" d="M630.527 416.794C630.527 416.794 639.201 406.33 642.329 410.893C644.473 414.001 640.853 421.22 640.853 421.22C640.853 421.22 654.288 420.689 645.279 431.546C645.279 431.546 647.089 418.781 636.428 425.645C625.767 432.51 650.846 410.736 630.527 416.794Z" fill="white"/>
<path fill-rule="evenodd" clip-rule="evenodd" d="M614.299 412.408C614.299 412.408 615.125 404.442 620.2 405.032C625.275 405.622 624.626 413.883 624.626 413.883C624.626 413.883 623.387 408.907 620.2 409.457C617.014 410.008 616.974 410.402 614.299 412.408Z" fill="white"/>
<path fill-rule="evenodd" clip-rule="evenodd" d="M671.833 449.288C671.833 449.288 679.15 441.283 682.16 447.813C685.169 454.343 674.783 462.565 674.783 462.565C674.783 462.565 670.26 460.5 676.259 456.664C682.258 452.829 676.554 447.754 671.833 449.288Z" fill="white"/>
<path fill-rule="evenodd" clip-rule="evenodd" d="M655.605 436.011C655.605 436.011 663.099 435.677 660.031 446.338C656.962 456.999 657.848 440.437 655.605 440.437C653.363 440.437 651.848 436.149 655.605 436.011Z" fill="white"/>
<path fill-rule="evenodd" clip-rule="evenodd" d="M677.734 500.921C676.829 500.803 689.535 493.348 691.011 503.872C692.486 514.395 685.11 516.657 682.159 517.149C679.209 517.64 687.962 512.29 686.585 506.822C685.208 501.354 686.073 501.964 677.734 500.921Z" fill="white"/>
<path fill-rule="evenodd" clip-rule="evenodd" d="M723.466 586.484C723.466 586.484 730.212 575.567 736.743 579.108C743.273 582.648 735.268 589.434 735.268 589.434C735.268 589.434 750.335 588.412 739.693 599.761C739.693 599.761 735.346 601.236 738.218 595.335C741.09 589.434 734.618 592.601 730.842 592.385C727.065 592.168 743.332 585.146 733.792 582.058C729.485 580.662 723.466 586.484 723.466 586.484Z" fill="white"/>
<path fill-rule="evenodd" clip-rule="evenodd" d="M711.664 570.217C711.664 570.217 718.45 564.552 721.99 568.742C725.531 572.932 721.99 577.593 721.99 577.593C721.99 577.593 722.993 572.027 719.04 570.217C716.7 569.133 714.003 569.133 711.664 570.217Z" fill="white"/>
<path fill-rule="evenodd" clip-rule="evenodd" d="M673.308 608.612C673.308 608.612 677.635 592.011 683.635 595.335C689.634 598.659 680.684 615.988 680.684 615.988C680.684 615.988 684.205 602.22 682.159 601.236C680.114 600.253 674.921 609.104 673.308 608.612Z" fill="white"/>
<path fill-rule="evenodd" clip-rule="evenodd" d="M686.585 611.523C686.585 611.523 693.764 604.855 695.436 607.098C697.108 609.34 696.892 620.08 692.486 620.375C688.08 620.67 692.683 617.798 692.486 614.474C692.289 611.15 687.391 613.53 686.585 612.999C685.779 612.467 686.585 611.523 686.585 611.523Z" fill="white"/>
<path fill-rule="evenodd" clip-rule="evenodd" d="M689.535 645.493C689.535 645.493 696.164 633.18 701.337 636.641C706.51 640.103 701.829 649.486 698.387 649.918C694.944 650.351 704.051 640.339 696.911 641.067C696.911 641.028 686.644 649.112 689.535 645.493Z" fill="white"/>
<path fill-rule="evenodd" clip-rule="evenodd" d="M649.705 648.443C649.705 648.443 655.704 646.85 657.081 645.493C658.458 644.136 659.048 641.559 655.606 641.067C652.163 640.575 667.171 621.948 651.18 630.741C641.758 635.914 636.428 648.443 636.428 648.443C636.428 648.443 651.436 631.37 654.13 633.691C656.825 636.012 650.59 640.988 648.23 644.018C645.869 647.047 647.246 648.247 649.705 648.443Z" fill="white"/>
<path fill-rule="evenodd" clip-rule="evenodd" d="M636.428 644.018C636.428 644.018 634.992 629.718 621.675 638.117C608.359 646.516 628.992 635.599 632.002 639.592C635.011 643.585 636.428 644.018 636.428 644.018Z" fill="white"/>
<path fill-rule="evenodd" clip-rule="evenodd" d="M754.445 490.595C754.445 490.595 766.011 478.144 769.197 483.219C772.384 488.293 768.745 498.443 757.396 502.396C746.046 506.35 755.921 496.496 755.921 496.496C755.921 496.496 772.679 488.038 766.247 489.119C759.815 490.201 750.452 496.81 754.445 490.595Z" fill="white"/>
<path fill-rule="evenodd" clip-rule="evenodd" d="M761.822 508.297C761.822 508.297 768.667 504.816 770.673 500.921C772.679 497.026 771.951 506.684 766.247 509.772C760.543 512.861 757.966 510.953 761.822 508.297Z" fill="white"/>
<path fill-rule="evenodd" clip-rule="evenodd" d="M572.993 340.083C572.993 340.083 586.899 338.293 584.795 316.479C584.795 316.479 570.593 310.342 571.518 332.707C571.518 332.707 571.518 334.378 574.468 325.33C577.419 316.282 587.588 319.607 580.369 329.756C573.15 339.906 570.416 339.139 572.993 340.083Z" fill="white"/>
<path fill-rule="evenodd" clip-rule="evenodd" d="M562.666 326.845C562.666 326.845 560.306 322.577 556.766 323.895C553.225 325.212 552.832 331.467 553.815 334.221C554.799 336.975 558.143 339.06 564.142 338.647C567.427 337.663 567.663 334.005 562.666 332.746C557.67 331.487 556.117 326.845 559.716 328.32C563.316 329.795 563.65 328.556 562.666 326.845Z" fill="white"/>
<path fill-rule="evenodd" clip-rule="evenodd" d="M443.173 403.557C443.173 403.557 443.036 387.113 434.322 388.804C425.608 390.496 429.267 405.425 432.847 407.982C436.427 410.539 440.046 412.388 440.223 407.982C440.4 403.576 429.503 403.714 432.847 394.705C436.191 385.697 440.203 401.609 443.173 403.557Z" fill="white"/>
<path fill-rule="evenodd" clip-rule="evenodd" d="M434.322 443.388C436.848 445.924 438.853 448.932 440.223 452.239C442.82 458.14 447.285 454.344 443.174 447.813C439.063 441.283 434.322 443.388 434.322 443.388Z" fill="white"/>
<path fill-rule="evenodd" clip-rule="evenodd" d="M425.471 443.387C425.471 443.387 428.775 448.325 428.421 440.437C428.067 432.55 425.844 435.559 421.045 436.011C416.246 436.464 422.461 435.677 425.471 430.111C428.48 424.544 421.891 410.618 403.342 424.21C403.342 424.21 401.493 430.111 400.392 424.21C399.29 418.309 399.35 417.699 390.065 419.784C380.781 421.869 388.197 422.498 387.115 416.834C386.033 411.169 382.729 402.927 378.264 403.557C373.799 404.186 372.796 420.413 376.788 422.734C380.781 425.055 369.137 425.488 369.412 421.259C369.688 417.03 371.025 410.382 367.937 410.933C364.849 411.483 358.732 413.863 356.135 416.834C353.539 419.804 355.604 408.749 342.858 415.358C342.445 409.32 341.068 399.131 335.482 399.131C329.896 399.131 327.949 408.808 328.106 416.834C328.263 424.859 322.54 416.263 316.304 419.784C310.069 423.305 311.092 425.586 308.928 425.685C306.765 425.783 306.214 426.472 305.978 422.734C305.742 418.997 297.284 423.403 295.651 427.16C294.019 430.917 296.674 429.265 300.077 427.16C303.48 425.055 299.703 433.592 303.027 431.586C306.352 429.579 303.716 422.852 311.879 425.685C314.79 426.688 317.426 423.265 320.73 424.21C324.035 425.154 326.828 426.688 328.106 422.734C329.385 418.781 326.375 418.997 329.581 416.834C332.788 414.67 330.368 410.756 331.057 407.982C331.745 405.209 337.095 401.845 338.433 410.933C339.77 420.02 338.728 421.908 344.334 419.784C349.939 417.66 355.014 418.564 351.71 422.734C348.405 426.904 353.106 425.095 359.086 419.784C365.065 414.473 367.347 418.368 366.462 422.734C365.577 427.101 368.626 425.39 369.412 425.685C370.199 425.98 368.901 423.403 370.888 422.734C372.874 422.066 376.454 423.187 378.264 422.734C380.073 422.282 377.713 417.424 376.788 413.883C375.864 410.343 383.063 409.339 384.165 416.834C385.266 424.328 385.6 417.778 388.59 419.784C391.58 421.79 394.019 420.649 395.966 422.734C397.914 424.819 397.265 430.74 401.867 428.635C403.303 427.967 399.369 425.645 403.342 425.685C407.316 425.724 406.116 423.108 412.194 424.21C418.272 425.311 427.752 427.396 418.095 431.586C408.437 435.775 412.43 437.172 415.144 437.487C417.859 437.801 417.859 435.126 419.57 436.011C421.281 436.897 425.648 437.978 425.471 440.437C425.334 441.416 425.334 442.409 425.471 443.387Z" fill="white"/>
<path fill-rule="evenodd" clip-rule="evenodd" d="M400.392 459.615C400.392 459.615 405.821 460.343 404.818 449.288C403.559 441.421 397.442 452.239 397.442 452.239C397.442 452.239 401.828 437.172 394.491 438.962C390.305 439.89 387.273 443.528 387.115 447.813C387.115 447.813 392.288 441.912 393.016 444.863C393.744 447.813 389.79 455.248 394.491 455.189C399.192 455.13 400.077 447.577 401.867 452.239C403.657 456.9 399.173 457.333 400.392 459.615Z" fill="white"/>
<path fill-rule="evenodd" clip-rule="evenodd" d="M357.611 447.813C357.611 447.813 361.997 444.764 363.512 444.863C365.026 444.961 363.512 434.831 360.561 438.962C357.611 443.092 359.578 446.731 357.611 447.813Z" fill="white"/>
<path fill-rule="evenodd" clip-rule="evenodd" d="M366.462 436.011C366.462 436.011 369.255 427.848 372.363 428.635C375.471 429.422 370.494 434.733 367.937 436.011C365.38 437.29 366.462 436.011 366.462 436.011Z" fill="white"/>
<path fill-rule="evenodd" clip-rule="evenodd" d="M415.144 455.189C415.144 455.189 409.243 457.55 410.719 459.615C412.194 461.68 417.19 459.163 416.62 464.041C416.049 468.919 414.161 456.979 415.144 455.189Z" fill="white"/>
<path fill-rule="evenodd" clip-rule="evenodd" d="M238.118 343.072C233.672 340.378 232.669 339.571 227.791 344.548C222.913 349.524 221.89 359.3 221.89 359.3C221.89 359.3 225.706 366.322 227.791 366.676C229.876 367.03 233.908 369.095 239.593 360.775C245.277 352.455 242.563 345.747 238.118 343.072ZM238.118 359.3C234.597 362.939 230.25 360.755 226.316 357.825C222.382 354.894 227.791 348.973 227.791 348.973C234.125 347.734 241.638 355.641 238.118 359.3Z" fill="white"/>
<path fill-rule="evenodd" clip-rule="evenodd" d="M447.599 651.394C447.599 651.394 451.69 653.656 452.025 649.918C452.359 646.181 452.556 642.916 449.074 642.542C445.593 642.169 435.306 649.25 440.223 644.018C445.14 638.785 452.28 626.197 443.173 627.79C434.066 629.383 425.471 648.443 425.471 648.443C425.471 648.443 439.495 630.524 443.173 632.216C443.96 634.006 432.945 644.627 435.797 651.394C437.449 655.328 445.101 644.372 447.599 646.968C448.3 647.487 448.714 648.308 448.714 649.181C448.714 650.053 448.3 650.874 447.599 651.394Z" fill="white"/>
<path fill-rule="evenodd" clip-rule="evenodd" d="M398.917 626.315C398.917 626.315 398.563 616.067 409.243 617.464C419.924 618.86 405.054 612.29 400.392 614.513C395.73 616.736 395.829 624.112 398.917 626.315Z" fill="white"/>
<path fill-rule="evenodd" clip-rule="evenodd" d="M418.095 608.612C418.095 608.612 415.42 600.331 421.045 599.761C420.042 596.181 417.485 584.399 422.52 583.534C427.556 582.668 431.588 595.827 423.995 589.434C423.995 589.434 420.612 586.917 423.995 595.335C426.572 601.748 427.713 601.413 422.52 601.236C417.327 601.059 422.048 606.095 421.045 608.612C420.042 611.13 418.095 608.612 418.095 608.612Z" fill="white"/>
<path fill-rule="evenodd" clip-rule="evenodd" d="M192.386 570.217C192.386 570.217 187.665 580.74 198.287 584.969C208.908 589.198 207.787 583.278 205.663 580.544C203.538 577.81 194.136 581.547 193.861 568.742C193.802 566.5 192.386 570.217 192.386 570.217Z" fill="white"/>
<path fill-rule="evenodd" clip-rule="evenodd" d="M118.625 375.488C118.625 375.488 112.901 363.076 105.348 365.161C97.7947 367.246 101.965 372.675 106.823 374.013C110.699 374.891 114.652 375.385 118.625 375.488Z" fill="white"/>
<path fill-rule="evenodd" clip-rule="evenodd" d="M152.555 365.201C152.555 365.201 149.683 348.383 154.03 340.122C158.377 331.861 157.492 348.56 154.03 359.3C150.568 370.039 152.555 365.201 152.555 365.201Z" fill="white"/>
<path fill-rule="evenodd" clip-rule="evenodd" d="M128.951 533.376C128.951 533.376 123.05 516.736 117.149 531.901C117.149 531.901 116.107 536.621 118.625 539.277C121.142 541.932 113.786 531.92 109.773 546.653C105.761 561.385 106.508 550.862 105.348 556.98C104.187 563.097 104.974 561.307 99.4468 558.455C93.9196 555.603 88.2744 558.671 86.1698 570.257C84.7142 578.124 92.2477 573.03 90.5954 579.108C88.9432 585.186 88.1761 586.012 90.5954 587.959C93.0148 589.906 91.1462 591.893 89.1202 595.335C87.0942 598.777 90.8118 592.523 90.5954 599.761C90.3791 606.999 88.6285 607.255 87.645 610.087C86.6615 612.92 87.1336 617.66 95.0211 618.939C95.0211 616.067 95.0211 613.038 95.0211 613.038C95.0211 613.038 89.3562 614.218 90.5954 610.087C91.8346 605.957 94.9228 607.491 95.0211 602.711C95.1194 597.932 91.6576 598.207 92.0707 593.86C92.4837 589.513 90.2611 588.766 93.5459 587.959C96.8307 587.153 93.3689 580.839 92.0707 580.583C90.7725 580.327 89.0809 578.616 93.5459 577.633C98.0109 576.649 96.634 574.505 95.0211 573.207C93.4082 571.909 85.8944 568.703 89.1202 565.831C92.346 562.959 98.6403 559.93 102.397 561.405C106.154 562.88 102.771 558.022 103.872 558.455C104.974 558.887 106.174 560.304 106.823 559.93C107.472 559.556 107.806 557.511 108.298 555.504C108.79 553.498 106.823 553.321 109.773 552.554C112.724 551.787 112.271 551.197 112.724 548.128C113.176 545.06 110.304 537.015 123.05 542.227C125.017 541.401 125.017 536.484 124.526 536.326C124.034 536.169 119.608 534.733 121.575 531.901C123.542 529.068 126.473 536.425 128.951 533.376Z" fill="white"/>
<path fill-rule="evenodd" clip-rule="evenodd" d="M128.951 568.781C128.951 568.781 126.63 554.875 121.575 559.93C116.52 564.985 117.936 568.88 120.1 574.682C122.264 580.485 116.166 574.289 114.199 579.108C112.232 583.927 111.819 588.628 117.149 589.434C122.48 590.241 121.89 584.202 118.625 582.058C115.36 579.914 115.615 574.544 121.575 577.633C127.535 580.721 126.217 576.118 124.526 574.682C122.834 573.246 119.884 559.478 128.951 568.781Z" fill="white"/>
<path fill-rule="evenodd" clip-rule="evenodd" d="M133.377 571.732C133.377 570.65 131.646 562.369 137.803 562.88C143.959 563.392 136.19 564.493 134.852 570.256C133.515 576.02 133.377 572.755 133.377 571.732Z" fill="white"/>
<path fill-rule="evenodd" clip-rule="evenodd" d="M86.1699 604.187C86.1699 604.187 83.1997 592.739 78.7937 593.86C75.4893 594.686 74.3681 601.236 74.3681 601.236C74.3681 601.236 56.39 593.762 50.7645 604.187C48.5357 607.805 48.5357 612.37 50.7646 615.988C50.7646 615.988 38.8448 622.735 47.8141 630.741C47.8141 630.741 51.866 631.429 49.2893 624.84C46.7126 618.25 48.7386 618.604 53.715 618.939C58.6914 619.273 57.0588 617.68 56.6654 615.988C56.272 614.297 45.9848 608.73 56.6654 605.662C67.346 602.593 72.4011 602.318 74.3681 602.711C76.335 603.105 72.4011 606.645 75.8433 607.137C79.2855 607.629 74.9778 597.066 80.269 599.761C85.5601 602.456 82.7277 605.465 86.1699 604.187Z" fill="white"/>
<path fill-rule="evenodd" clip-rule="evenodd" d="M69.9424 641.028C70.1987 637.587 72.5426 634.657 75.8433 633.652C81.5082 631.96 73.1093 636.523 72.8929 641.028C72.6765 645.532 69.8441 643.27 69.9424 641.028Z" fill="white"/>
<path fill-rule="evenodd" clip-rule="evenodd" d="M53.715 648.443C53.715 648.443 52.2201 636.818 40.438 638.117C33.9274 638.825 34.5372 649.918 34.5372 649.918C31.6363 647.578 27.9103 646.513 24.2106 646.968C17.4246 647.46 22.1453 650.154 18.3097 651.394C14.4741 652.633 9.47806 647.46 6.50795 649.918C3.53783 652.377 -0.848491 657.019 0.60706 657.295C2.06261 657.57 9.49773 654.915 12.4088 654.344C15.3199 653.774 12.9793 652.475 16.8345 652.869C20.6897 653.262 20.139 652.495 18.3097 655.819C16.4804 659.143 19.5292 655.642 22.7354 652.869C25.9415 650.095 26.1776 653.007 30.1115 652.869C34.0454 652.731 36.7205 653.852 37.4876 655.819C38.2547 657.786 36.8188 652.672 37.4876 648.443C38.1564 644.214 42.5427 644.057 47.8141 646.968C53.0856 649.879 53.715 648.443 53.715 648.443Z" fill="white"/>
<path fill-rule="evenodd" clip-rule="evenodd" d="M148.129 654.344C148.129 654.344 151.395 643.939 146.654 644.018C141.914 644.096 140.34 649.407 140.753 645.493C141.166 641.579 143.822 642.228 143.704 633.691C143.586 625.154 141.874 614.887 128.951 642.542C128.951 642.542 124.526 655.406 131.902 642.542C139.278 629.678 143.487 623.719 139.278 639.592C135.069 655.465 135.344 650.784 140.753 649.918C146.162 649.053 145.926 648.601 145.179 654.344C144.431 660.088 148.129 654.344 148.129 654.344Z" fill="white"/>
<path fill-rule="evenodd" clip-rule="evenodd" d="M123.05 649.918C123.05 649.918 124.349 637.173 117.149 635.166C109.95 633.16 114.199 646.968 114.199 646.968C114.199 646.968 98.1879 640.202 96.4963 654.344C94.8048 668.487 94.6474 647.519 108.298 652.869C121.949 658.219 118.133 655.347 118.625 652.869C119.116 650.391 116.776 639.474 123.05 649.918Z" fill="white"/>
<path fill-rule="evenodd" clip-rule="evenodd" d="M168.782 627.79C168.782 627.79 175.686 631.724 173.208 638.117C170.73 644.509 173.896 641.677 176.158 639.592C178.42 637.507 176.925 627.908 168.782 627.79Z" fill="white"/>
<path fill-rule="evenodd" clip-rule="evenodd" d="M168.782 644.018C168.782 644.018 158.161 642.641 156.98 646.968C155.8 651.295 155.505 646.594 165.832 646.968C176.158 647.342 168.782 644.018 168.782 644.018Z" fill="white"/>
<path fill-rule="evenodd" clip-rule="evenodd" d="M185.108 292.03C182.295 286.326 161.701 244.351 161.701 244.351C161.701 244.351 159.734 237.152 151.867 240.987L92.2677 270.216C92.2677 270.216 86.5438 273.717 90.163 281.113L122.657 347.321C122.657 347.321 123.385 350.508 125.293 350.96C127.976 351.456 130.668 350.138 131.922 347.714C132.767 345.905 140.045 320.728 140.045 320.728L179.778 301.235C179.778 301.235 187.901 297.754 185.108 292.03ZM179.424 298.481L138.373 318.623C138.373 318.623 132.885 338.293 131.587 341.656C130.918 343.367 129.778 349.19 126.926 348.875C124.073 348.56 122.342 342.974 122.342 342.974L91.7956 280.661C88.4518 273.855 93.7626 271.436 93.7626 271.436C93.7626 271.436 142.937 247.832 150.175 244.213C157.413 240.594 160.364 246.77 160.364 246.77L181.882 290.653C182.616 292.013 182.769 293.612 182.306 295.086C181.843 296.561 180.803 297.785 179.424 298.481Z" fill="white"/>
<path fill-rule="evenodd" clip-rule="evenodd" d="M148.837 274.347C150.967 277.096 152.519 280.247 153.401 283.611C154.691 284.295 156.232 284.317 157.541 283.67C158.85 283.023 159.769 281.786 160.01 280.346C161.505 274.681 156.391 272.183 155.446 271.082C154.502 269.98 150.293 266.715 148.837 274.347Z" fill="white"/>
<path fill-rule="evenodd" clip-rule="evenodd" d="M133.594 280.189C133.594 280.189 130.309 281.998 134.872 289.433C139.435 296.868 140.026 295.728 142.091 294.095C144.156 292.462 141.481 286.227 141.481 286.227C141.481 286.227 137.036 277.376 133.594 280.189Z" fill="white"/>
<path fill-rule="evenodd" clip-rule="evenodd" d="M117.051 289.984C117.051 289.984 110.482 290.928 115.084 299.19C119.687 307.451 125.529 303.379 124.329 297.931C123.129 292.482 117.051 289.984 117.051 289.984Z" fill="white"/>
</svg>
