<svg width="382" height="447" viewBox="0 0 382 447" fill="none" xmlns="http://www.w3.org/2000/svg">
<path opacity="0.6" d="M349.995 0C312.896 0 89.8963 0 89.8963 0C89.8963 0 54.7987 0.863281 54.7987 39.4004C54.7987 77.9375 54.7987 323.059 54.7987 323.059C54.7987 323.059 50.472 345.175 63.9334 350.462C77.3954 355.752 84.6063 355.752 93.2621 348.059C101.915 340.366 171.627 266.809 171.627 266.809H337.976C337.976 266.809 381.727 271.134 381.727 232.672C381.727 194.209 381.727 39.4004 381.727 39.4004C381.727 39.4004 387.095 0 349.995 0Z" fill="white"/>
<g filter="url(#filter0_d_13_261)">
<path d="M296.814 92.1221C259.715 92.1221 36.7152 92.1221 36.7152 92.1221C36.7152 92.1221 1.61753 92.9854 1.61753 131.522C1.61753 170.06 1.61753 415.181 1.61753 415.181C1.61753 415.181 -2.70913 437.297 10.7523 442.584C24.2142 447.874 31.4251 447.874 40.0809 440.181C48.7337 432.488 118.446 358.931 118.446 358.931H284.795C284.795 358.931 328.546 363.256 328.546 324.794C328.546 286.331 328.546 131.522 328.546 131.522C328.546 131.522 333.914 92.1221 296.814 92.1221Z" fill="white"/>
</g>
<g clip-path="url(#clip0_13_261)">
<mask id="mask0_13_261" style="mask-type:luminance" maskUnits="userSpaceOnUse" x="27" y="140" width="276" height="178">
<path d="M302.942 140.186H27.9424V317.186H302.942V140.186Z" fill="white"/>
</mask>
<g mask="url(#mask0_13_261)">
<mask id="mask1_13_261" style="mask-type:luminance" maskUnits="userSpaceOnUse" x="27" y="140" width="276" height="177">
<path d="M71.9934 316.938C71.9474 316.938 71.9184 316.923 71.9064 316.894C71.7444 316.487 74.8784 313.215 82.0694 306.285C94.3974 296.028 101.925 288.221 105.085 282.416C107.832 277.37 106.899 274.548 106.075 272.059C105.667 271.01 105.423 269.905 105.351 268.783C83.2514 262.822 65.5734 249.745 55.0114 241.931C50.0404 238.253 46.7554 235.824 45.3114 235.824C45.1366 235.816 44.9642 235.866 44.8214 235.968C43.8724 236.695 42.8874 238.452 41.7474 240.488C40.5792 242.746 39.1844 244.881 37.5844 246.858C35.6844 249.025 33.7324 250.078 31.6204 250.078C31.3637 250.077 31.1073 250.062 30.8524 250.032C30.4109 249.977 29.9897 249.815 29.6261 249.559C29.2625 249.302 28.9679 248.96 28.7684 248.563C28.2485 247.517 27.9748 246.366 27.9684 245.199C27.7424 240.775 29.5024 234.349 32.4424 228.828C33.8667 226.073 35.693 223.545 37.8614 221.328C39.7463 219.329 42.1582 217.904 44.8184 217.219C46.0275 216.914 47.264 216.732 48.5094 216.675C49.2784 216.675 49.7424 216.829 49.9294 217.147C50.2704 217.728 49.6794 218.814 48.9294 220.188C47.3364 223.112 44.9294 227.53 49.4734 231.282C51.7324 233.146 55.9524 235.194 61.6734 237.205C68.9427 239.659 76.3628 241.641 83.8874 243.139C97.9934 246.059 121.244 249.625 151.909 250.033C159.809 250.423 167.543 250.62 174.891 250.62C228.066 250.62 256.967 240.263 271.848 231.575C280.273 226.656 285.195 221.74 287.84 218.482C289.384 216.697 290.652 214.69 291.6 212.53C292.025 207.922 292.809 204.452 293.931 202.216C294.845 200.394 295.98 199.432 297.213 199.432C298.955 199.432 300.462 201.325 300.913 203.155C301.763 208.421 302.178 213.748 302.153 219.083C302.196 225.5 301.714 234.03 299.172 238.231C298.875 238.81 298.463 239.324 297.962 239.741C297.461 240.158 296.882 240.47 296.257 240.658C295.812 240.768 295.355 240.827 294.896 240.832C294.371 240.85 293.849 240.743 293.373 240.519C292.898 240.296 292.482 239.962 292.16 239.547C291.443 238.51 291.011 237.303 290.909 236.047C290.745 234.623 290.724 233.186 290.846 231.759C290.98 230.022 291.232 228.297 291.601 226.596C291.377 226.727 266.166 241.435 245.037 254.723C237.494 259.467 231.258 264.665 227.003 269.754C223.714 273.688 221.627 277.554 221.277 280.36C221.175 280.785 221.164 281.227 221.247 281.656C221.33 282.086 221.503 282.493 221.756 282.85C224.956 286.285 228.432 292.802 231.051 300.282C233.519 307.331 234.522 313.263 233.606 315.393C233.531 315.641 233.379 315.859 233.172 316.016C232.965 316.173 232.714 316.261 232.454 316.267C231.168 316.267 229.135 314.488 226.413 310.978C217.358 299.303 208.282 297.56 203.678 297.56C198.532 297.56 194.757 299.642 193.818 301.602C191.618 309.049 190.086 312.37 188.844 312.37C187.717 312.37 186.914 309.575 185.983 306.339C185.532 304.769 185.065 303.147 184.505 301.602C179.863 298.663 174.479 297.11 168.984 297.126C165.516 297.204 162.064 297.624 158.677 298.38L157.89 298.536C155.28 299.151 152.618 299.519 149.938 299.636C148.595 299.7 147.252 299.492 145.991 299.024C144.729 298.557 143.575 297.84 142.597 296.916C140.197 294.578 137.355 292.742 134.236 291.518C131.117 290.294 127.785 289.705 124.435 289.786C119.533 289.896 114.673 290.718 110.006 292.226C104.122 293.986 91.2724 303.357 81.8904 310.199C76.7244 313.962 72.6424 316.938 71.9934 316.938ZM182.635 287.186C183.677 287.105 184.709 287.44 185.505 288.117C186.042 288.699 186.43 289.401 186.639 290.165L186.726 290.419C187.202 291.819 187.652 293.144 189.777 293.145C191.168 293.065 192.535 292.754 193.823 292.224C200.358 289.846 207.807 281.004 211.665 275.946C217.054 268.88 221.237 261.691 221.765 259.41C222.476 256.322 222.202 255.266 221.975 254.91C221.931 254.823 221.856 254.755 221.765 254.72H110.007C110.007 254.745 109.428 257.795 109.139 261.075C108.875 264.075 108.811 267.851 110.007 268.784C110.726 269.345 111.067 270.578 111.462 272.006C112.238 274.806 113.204 278.299 117.668 278.299C118.222 278.295 118.774 278.249 119.32 278.16C123.022 277.533 126.767 277.198 130.52 277.16C135.595 277.024 140.638 278.006 145.29 280.037C147.713 281.163 149.91 282.722 151.772 284.637C153.855 286.829 155.485 289.409 156.572 292.231C156.672 292.212 168.828 289.957 179.854 287.543C180.766 287.326 181.698 287.206 182.635 287.186ZM182.442 229.605H182.275C176.517 229.448 172.363 224.705 169.929 215.494C167.76 207.294 167.417 197.232 167.511 190.239C167.487 186.08 167.747 181.924 168.288 177.801C168.297 177.809 168.308 177.842 168.306 178.039C168.374 179.064 168.841 180.021 169.606 180.707C170.993 182.098 172.866 182.897 174.83 182.936C175.691 182.936 176.541 182.75 177.323 182.392C178.105 182.034 178.801 181.511 179.362 180.86C180.838 179.223 181.818 176.697 182.276 173.351C182.876 168.96 182.395 165.895 180.806 163.981C179.492 162.622 177.773 161.726 175.906 161.426C174.262 160.999 172.963 160.662 172.958 159.288C173.207 154.265 174.817 149.404 177.614 145.225C178.274 144.197 179.156 143.33 180.194 142.687C181.154 142.085 182.188 141.61 183.27 141.276C184.459 140.896 185.685 140.648 186.927 140.537C187.333 140.314 187.787 140.194 188.249 140.186C188.67 140.207 189.081 140.314 189.458 140.5C189.836 140.686 190.171 140.948 190.442 141.27C191.882 143.049 192.913 145.124 193.463 147.346C194.442 150.69 195.159 154.106 195.609 157.562C196.794 166.622 197.252 175.762 196.976 184.896C196.676 196.887 195.288 207.804 193.076 215.634C192.185 219.235 190.692 222.66 188.659 225.764C186.815 228.313 184.725 229.605 182.442 229.605ZM129.636 229.605H129.469C123.711 229.448 119.557 224.705 117.123 215.494C114.954 207.294 114.611 197.232 114.705 190.239C114.682 186.08 114.942 181.924 115.483 177.801C115.492 177.809 115.503 177.842 115.501 178.039C115.569 179.064 116.036 180.021 116.801 180.707C118.188 182.098 120.061 182.897 122.025 182.936C122.886 182.936 123.736 182.75 124.518 182.392C125.3 182.034 125.996 181.511 126.557 180.86C128.033 179.223 129.013 176.697 129.471 173.351C130.071 168.96 129.59 165.895 128.001 163.981C126.687 162.622 124.968 161.726 123.101 161.426C121.457 160.999 120.158 160.662 120.154 159.288C120.404 154.264 122.014 149.402 124.812 145.223C125.472 144.195 126.353 143.328 127.391 142.686C128.351 142.084 129.385 141.609 130.467 141.275C131.656 140.895 132.882 140.647 134.124 140.536C134.529 140.314 134.981 140.194 135.442 140.186C135.863 140.207 136.274 140.314 136.651 140.5C137.028 140.687 137.363 140.949 137.634 141.27C139.074 143.049 140.105 145.124 140.655 147.346C141.634 150.69 142.351 154.106 142.801 157.562C143.986 166.622 144.444 175.762 144.168 184.896C143.868 196.887 142.48 207.804 140.268 215.634C139.377 219.235 137.884 222.66 135.851 225.764C134.008 228.313 131.918 229.605 129.636 229.605ZM79.5234 218.715C77.2904 218.715 75.7594 218.058 75.3234 216.915C74.8684 215.715 75.6094 214.163 77.4124 212.531C78.9384 211.15 79.5994 210.039 79.3254 209.319C79.1174 208.772 78.3564 208.482 77.1254 208.482C74.2984 208.482 69.4384 209.92 63.4424 212.531C63.1594 212.669 62.8518 212.75 62.5374 212.77C62.432 212.779 62.3261 212.758 62.2316 212.711C62.1371 212.663 62.0577 212.59 62.0024 212.5C61.4134 211.482 63.4224 207.88 63.4434 207.844C65.7229 205.072 68.1518 202.427 70.7194 199.921C72.7318 197.919 74.9143 196.095 77.2424 194.472C79.6884 192.829 81.7664 191.996 83.4164 191.996C84.0738 191.981 84.7236 192.138 85.3021 192.45C85.8807 192.762 86.3681 193.22 86.7164 193.778C88.7 196.657 90.321 199.77 91.5424 203.046C92.7814 206.596 93.0184 209.602 92.2474 211.981C91.8101 213.229 91.0812 214.356 90.1212 215.267C89.1611 216.177 87.9977 216.846 86.7274 217.217C84.4265 218.114 81.9915 218.621 79.5234 218.715ZM252.788 218.3C251.553 218.3 250.488 216.3 249.698 212.53C249.184 209.618 248.479 206.742 247.589 203.923C246.954 202.258 246.283 201.61 245.195 201.61C243.837 201.79 242.518 202.19 241.288 202.795C241.002 202.909 240.702 203.029 240.388 203.154C239.615 203.487 238.788 203.677 237.946 203.713C237.591 203.736 237.236 203.673 236.91 203.53C236.585 203.387 236.298 203.167 236.075 202.89C234.961 201.43 235.724 198.496 235.731 198.466C237.777 197.1 239.894 195.845 242.074 194.707C243.951 193.711 245.894 192.847 247.89 192.123C249.713 191.42 251.639 191.022 253.59 190.948C254.334 190.895 255.08 191.002 255.779 191.261C256.478 191.519 257.113 191.924 257.643 192.448C258.776 193.686 259.236 195.71 259.011 198.463C258.686 203.292 257.839 208.072 256.484 212.72C255.332 216.319 254.019 218.3 252.788 218.3Z" fill="white"/>
</mask>
<g mask="url(#mask1_13_261)">
<path d="M398.692 -6.67145H-68.5975V463.774H398.692V-6.67145Z" fill="#8472FC"/>
</g>
</g>
</g>
<defs>
<filter id="filter0_d_13_261" x="0.955078" y="90.1221" width="329.861" height="356.171" filterUnits="userSpaceOnUse" color-interpolation-filters="sRGB">
<feFlood flood-opacity="0" result="BackgroundImageFix"/>
<feColorMatrix in="SourceAlpha" type="matrix" values="0 0 0 0 0 0 0 0 0 0 0 0 0 0 0 0 0 0 127 0" result="hardAlpha"/>
<feOffset dx="2" dy="-2"/>
<feComposite in2="hardAlpha" operator="out"/>
<feColorMatrix type="matrix" values="0 0 0 0 0.129412 0 0 0 0 0.129412 0 0 0 0 0.129412 0 0 0 0.160784 0"/>
<feBlend mode="normal" in2="BackgroundImageFix" result="effect1_dropShadow_13_261"/>
<feBlend mode="normal" in="SourceGraphic" in2="effect1_dropShadow_13_261" result="shape"/>
</filter>
<clipPath id="clip0_13_261">
<rect width="275" height="177" fill="white" transform="translate(27.9424 140.186)"/>
</clipPath>
</defs>
</svg>
